<svg width="97" height="109" viewBox="0 0 97 109" fill="none" xmlns="http://www.w3.org/2000/svg">
<path d="M68.3333 106V87.0428C68.5084 84.707 68.2077 82.3588 67.4514 80.1544C66.6951 77.95 65.5003 75.9399 63.9467 74.2576C78.6 72.5432 94 66.7139 94 39.9681C93.9988 33.1289 91.4926 26.552 87 21.5986C89.1273 15.6151 88.9769 9.00138 86.58 3.13125C86.58 3.13125 81.0733 1.41677 68.3333 10.381C57.6374 7.3382 46.3626 7.3382 35.6667 10.381C22.9267 1.41677 17.42 3.13125 17.42 3.13125C15.0231 9.00138 14.8727 15.6151 17 21.5986C12.4739 26.5888 9.96511 33.2251 10 40.115C10 66.665 25.4 72.4942 40.0533 74.4046C38.518 76.07 37.3339 78.056 36.5781 80.2334C35.8223 82.4109 35.5118 84.731 35.6667 87.0428V106M35.6667 91.3045C12.3333 98.6522 12.3333 79.0582 3 76.6089L35.6667 91.3045Z" stroke="#B04C86" stroke-width="5" stroke-linecap="round" stroke-linejoin="round"/>
</svg>
