<svg width="113" height="113" viewBox="0 0 113 113" fill="none" xmlns="http://www.w3.org/2000/svg">
<path d="M75.3333 37.6667C82.8257 37.6667 90.0112 40.643 95.3091 45.9409C100.607 51.2388 103.583 58.4243 103.583 65.9167V98.875H84.75V65.9167C84.75 63.4192 83.7579 61.0241 81.9919 59.2581C80.2259 57.4921 77.8308 56.5 75.3333 56.5C72.8359 56.5 70.4407 57.4921 68.6747 59.2581C66.9088 61.0241 65.9166 63.4192 65.9166 65.9167V98.875H47.0833V65.9167C47.0833 58.4243 50.0596 51.2388 55.3575 45.9409C60.6555 40.643 67.8409 37.6667 75.3333 37.6667V37.6667Z" stroke="#AD4A84" stroke-width="5" stroke-linecap="round" stroke-linejoin="round"/>
<path d="M28.25 42.375H9.41666V98.875H28.25V42.375Z" stroke="#AD4A84" stroke-width="5" stroke-linecap="round" stroke-linejoin="round"/>
<path d="M18.8333 28.25C24.034 28.25 28.25 24.034 28.25 18.8334C28.25 13.6327 24.034 9.41669 18.8333 9.41669C13.6326 9.41669 9.41666 13.6327 9.41666 18.8334C9.41666 24.034 13.6326 28.25 18.8333 28.25Z" stroke="#AD4A84" stroke-width="5" stroke-linecap="round" stroke-linejoin="round"/>
</svg>
