<svg width="89" height="95" viewBox="0 0 89 95" fill="none" xmlns="http://www.w3.org/2000/svg">
<path d="M86 44.7232L46.7595 84.4072C41.9522 89.2688 35.4322 92 28.6337 92C21.8352 92 15.3152 89.2688 10.5079 84.4072C5.70069 79.5456 3 72.9519 3 66.0765C3 59.2012 5.70069 52.6075 10.5079 47.7459L49.7484 8.06187C52.9533 4.82081 57.3 3 61.8323 3C66.3646 3 70.7113 4.82081 73.9162 8.06187C77.121 11.3029 78.9214 15.6987 78.9214 20.2823C78.9214 24.8659 77.121 29.2617 73.9162 32.5027L34.633 72.1868C33.0305 73.8073 30.8572 74.7177 28.591 74.7177C26.3249 74.7177 24.1515 73.8073 22.5491 72.1868C20.9467 70.5662 20.0464 68.3683 20.0464 66.0765C20.0464 63.7848 20.9467 61.5869 22.5491 59.9663L58.8007 23.3482" stroke="#AD4A84" stroke-width="5" stroke-linecap="round" stroke-linejoin="round"/>
</svg>
