<svg width="105" height="101" viewBox="0 0 105 101" fill="none" xmlns="http://www.w3.org/2000/svg">
<path d="M102 3.05324C97.6907 6.62945 92.9195 9.36467 87.87 11.1536C85.1598 7.48731 81.558 4.88874 77.5517 3.70935C73.5453 2.52995 69.3277 2.82662 65.4694 4.55923C61.611 6.29185 58.298 9.37681 55.9784 13.3969C53.6589 17.417 52.4446 22.1782 52.5 27.0366V32.331C44.5919 32.5722 36.7557 30.5087 29.6895 26.3242C22.6233 22.1398 16.5464 15.9642 12 8.34758C12 8.34758 -6 55.9967 34.5 77.174C25.2324 84.5753 14.1922 88.2865 3 87.7627C43.5 114.234 93 87.7627 93 26.8778C92.9959 25.4031 92.8753 23.932 92.64 22.4835C97.2327 17.1547 100.474 10.4267 102 3.05324V3.05324Z" stroke="#9F457F" stroke-width="5" stroke-linecap="round" stroke-linejoin="round"/>
</svg>
