<svg width="43" height="41" viewBox="0 0 43 41" fill="none" xmlns="http://www.w3.org/2000/svg">
<path d="M21.5 0C9.62125 0 0 9.40275 0 21C0 30.2803 6.15975 38.15 14.7006 40.9238C15.7756 41.1215 16.1698 40.4723 16.1698 39.914C16.1698 39.4153 16.1519 38.094 16.1429 36.344C10.1623 37.611 8.901 33.5265 8.901 33.5265C7.92275 31.1028 6.50912 30.4553 6.50912 30.4553C4.56158 29.1533 6.65963 29.1795 6.65963 29.1795C8.81858 29.3265 9.95271 31.3425 9.95271 31.3425C11.8698 34.5538 14.9855 33.6263 16.2146 33.089C16.4081 31.731 16.9617 30.8053 17.5763 30.2803C12.8015 29.7553 7.783 27.9493 7.783 19.9028C7.783 17.6103 8.61613 15.7378 9.99571 14.2678C9.75383 13.7375 9.02821 11.6025 10.1838 8.70975C10.1838 8.70975 11.9845 8.14625 16.0963 10.8623C17.8163 10.395 19.6438 10.164 21.4713 10.1535C23.2988 10.164 25.1263 10.395 26.8463 10.8623C30.9313 8.14625 32.732 8.70975 32.732 8.70975C33.8876 11.6025 33.162 13.7375 32.947 14.2678C34.3176 15.7378 35.1507 17.6103 35.1507 19.9028C35.1507 27.9703 30.1251 29.7465 25.3413 30.2628C26.0938 30.8928 26.7926 32.1808 26.7926 34.1478C26.7926 36.9583 26.7657 39.2158 26.7657 39.8983C26.7657 40.4495 27.142 41.1058 28.2438 40.8958C36.8456 38.1413 43 30.2663 43 21C43 9.40275 33.3734 0 21.5 0Z" fill="#C75891"/>
</svg>
